<svg xmlns="http://www.w3.org/2000/svg" width="900" height="700" viewBox="0 0 900 700" fill="none">
  <defs>
    <linearGradient id="bg" x1="106" y1="85" x2="772" y2="611" gradientUnits="userSpaceOnUse">
      <stop stop-color="#16181e"/>
      <stop offset="1" stop-color="#090b10"/>
    </linearGradient>
    <radialGradient id="glow" cx="0" cy="0" r="1" gradientUnits="userSpaceOnUse" gradientTransform="translate(646 162) rotate(138.12) scale(319.469 447.424)">
      <stop stop-color="#79b7ff"/>
      <stop offset="0.46" stop-color="#79b7ff" stop-opacity=".55"/>
      <stop offset="1" stop-color="#79b7ff" stop-opacity="0"/>
    </radialGradient>
    <linearGradient id="body" x1="272" y1="96" x2="620" y2="600" gradientUnits="userSpaceOnUse">
      <stop stop-color="#f0f4f8"/>
      <stop offset="0.45" stop-color="#cfd6df"/>
      <stop offset="1" stop-color="#f7fafc"/>
    </linearGradient>
    <linearGradient id="screen" x1="308" y1="114" x2="611" y2="596" gradientUnits="userSpaceOnUse">
      <stop stop-color="#f5fbff"/>
      <stop offset="0.3" stop-color="#8dc7ff"/>
      <stop offset="0.7" stop-color="#245f9f"/>
      <stop offset="1" stop-color="#06111a"/>
    </linearGradient>
  </defs>
  <rect width="900" height="700" rx="44" fill="url(#bg)"/>
  <circle cx="647" cy="162" r="242" fill="url(#glow)" opacity=".72"/>
  <circle cx="224" cy="547" r="179" fill="#123153" opacity=".34"/>
  <rect x="110" y="84" width="680" height="532" rx="40" fill="#ffffff" fill-opacity=".03" stroke="#ffffff" stroke-opacity=".08"/>
  <ellipse cx="450" cy="592" rx="180" ry="29" fill="#000000" fill-opacity=".35"/>
  <g transform="translate(244 89)">
    <rect x="20" y="0" width="320" height="522" rx="40" fill="url(#body)"/>
    <rect x="33" y="13" width="294" height="496" rx="34" fill="#fbfcfd"/>
    <rect x="46" y="26" width="268" height="470" rx="28" fill="url(#screen)"/>
    <path d="M79 92C130 48 203 55 260 132C208 121 155 146 119 191C95 166 83 134 79 92Z" fill="#eff9ff" fill-opacity=".56"/>
    <path d="M86 308C145 264 219 258 282 333C235 332 187 352 149 396C113 377 94 347 86 308Z" fill="#c6ebff" fill-opacity=".24"/>
    <circle cx="252" cy="96" r="44" fill="#dce1e8" stroke="#96a0ac" stroke-opacity=".55" stroke-width="3"/>
    <circle cx="234" cy="81" r="14" fill="#0c0e12"/>
    <circle cx="270" cy="81" r="14" fill="#0c0e12"/>
    <circle cx="234" cy="113" r="14" fill="#0c0e12"/>
    <circle cx="270" cy="113" r="14" fill="#0c0e12"/>
    <circle cx="252" cy="96" r="8" fill="#2d343d"/>
    <rect x="66" y="55" width="10" height="438" fill="#2d6bcb"/>
    <rect x="76" y="55" width="10" height="438" fill="#0f172a"/>
    <rect x="86" y="55" width="10" height="438" fill="#d52828"/>
    <circle cx="180" cy="27" r="5" fill="#c9d0da"/>
    <rect x="18" y="118" width="4" height="72" rx="2" fill="#d2d8e1"/>
    <rect x="340" y="165" width="4" height="94" rx="2" fill="#d2d8e1"/>
  </g>
</svg>
