<svg xmlns="http://www.w3.org/2000/svg" width="900" height="700" viewBox="0 0 900 700" fill="none">
  <defs>
    <linearGradient id="bg" x1="104" y1="88" x2="774" y2="612" gradientUnits="userSpaceOnUse">
      <stop stop-color="#1b1010"/>
      <stop offset="1" stop-color="#0c0d12"/>
    </linearGradient>
    <radialGradient id="glow" cx="0" cy="0" r="1" gradientUnits="userSpaceOnUse" gradientTransform="translate(254 152) rotate(45.68) scale(259.5 322.399)">
      <stop stop-color="#ff7e7e"/>
      <stop offset="1" stop-color="#ff7e7e" stop-opacity="0"/>
    </radialGradient>
    <linearGradient id="body" x1="271" y1="100" x2="618" y2="594" gradientUnits="userSpaceOnUse">
      <stop stop-color="#1b1d25"/>
      <stop offset="1" stop-color="#2b2f38"/>
    </linearGradient>
    <linearGradient id="wallpaper" x1="309" y1="114" x2="611" y2="596" gradientUnits="userSpaceOnUse">
      <stop stop-color="#fff5f5"/>
      <stop offset="0.3" stop-color="#ff7d68"/>
      <stop offset="0.66" stop-color="#c12137"/>
      <stop offset="1" stop-color="#14060c"/>
    </linearGradient>
  </defs>
  <rect width="900" height="700" rx="44" fill="url(#bg)"/>
  <circle cx="255" cy="153" r="214" fill="url(#glow)" opacity=".75"/>
  <circle cx="678" cy="541" r="171" fill="#3a121c" opacity=".45"/>
  <rect x="110" y="84" width="680" height="532" rx="40" fill="#ffffff" fill-opacity=".03" stroke="#ffffff" stroke-opacity=".08"/>
  <ellipse cx="449" cy="592" rx="176" ry="28" fill="#000000" fill-opacity=".36"/>
  <g transform="translate(243 90)">
    <rect x="20" y="0" width="322" height="522" rx="42" fill="url(#body)"/>
    <rect x="34" y="14" width="294" height="494" rx="36" fill="#060709"/>
    <rect x="47" y="28" width="268" height="466" rx="30" fill="url(#wallpaper)"/>
    <path d="M83 92C139 48 213 57 263 135C210 122 156 144 121 189C99 159 87 129 83 92Z" fill="#fff1ef" fill-opacity=".6"/>
    <path d="M80 302C140 259 214 256 276 330C228 327 181 347 143 391C108 368 90 342 80 302Z" fill="#ffcabf" fill-opacity=".26"/>
    <circle cx="251" cy="57" r="7" fill="#1b1f27"/>
    <rect x="18" y="116" width="4" height="72" rx="2" fill="#3f444d"/>
    <rect x="18" y="201" width="4" height="42" rx="2" fill="#3f444d"/>
    <rect x="340" y="162" width="4" height="94" rx="2" fill="#3f444d"/>
    <circle cx="262" cy="112" r="52" fill="#1a1b22" stroke="#868b95" stroke-opacity=".45" stroke-width="3"/>
    <circle cx="243" cy="96" r="15" fill="#0e1014"/>
    <circle cx="280" cy="96" r="15" fill="#0e1014"/>
    <circle cx="243" cy="129" r="15" fill="#0e1014"/>
    <circle cx="280" cy="129" r="15" fill="#0e1014"/>
    <circle cx="243" cy="96" r="9" fill="#2b313c"/>
    <circle cx="280" cy="96" r="9" fill="#2b313c"/>
    <circle cx="243" cy="129" r="9" fill="#2b313c"/>
    <circle cx="280" cy="129" r="9" fill="#2b313c"/>
  </g>
</svg>
