<svg xmlns="http://www.w3.org/2000/svg" width="900" height="700" viewBox="0 0 900 700" fill="none">
  <defs>
    <linearGradient id="bg" x1="106" y1="86" x2="774" y2="612" gradientUnits="userSpaceOnUse">
      <stop stop-color="#17161f"/>
      <stop offset="1" stop-color="#09090f"/>
    </linearGradient>
    <radialGradient id="glow" cx="0" cy="0" r="1" gradientUnits="userSpaceOnUse" gradientTransform="translate(250 157) rotate(45.62) scale(259.781 331.592)">
      <stop stop-color="#f5b172"/>
      <stop offset="1" stop-color="#f5b172" stop-opacity="0"/>
    </radialGradient>
    <linearGradient id="body" x1="274" y1="97" x2="621" y2="600" gradientUnits="userSpaceOnUse">
      <stop stop-color="#e8c6a3"/>
      <stop offset="0.47" stop-color="#c5936e"/>
      <stop offset="1" stop-color="#f6dfca"/>
    </linearGradient>
    <linearGradient id="screen" x1="308" y1="114" x2="611" y2="595" gradientUnits="userSpaceOnUse">
      <stop stop-color="#fff8ef"/>
      <stop offset="0.28" stop-color="#f6af73"/>
      <stop offset="0.68" stop-color="#8c4229"/>
      <stop offset="1" stop-color="#150907"/>
    </linearGradient>
  </defs>
  <rect width="900" height="700" rx="44" fill="url(#bg)"/>
  <circle cx="251" cy="157" r="216" fill="url(#glow)" opacity=".77"/>
  <circle cx="676" cy="543" r="171" fill="#45251b" opacity=".34"/>
  <rect x="110" y="84" width="680" height="532" rx="40" fill="#ffffff" fill-opacity=".03" stroke="#ffffff" stroke-opacity=".08"/>
  <ellipse cx="450" cy="593" rx="180" ry="29" fill="#000000" fill-opacity=".35"/>
  <g transform="translate(244 89)">
    <rect x="20" y="0" width="320" height="522" rx="40" fill="url(#body)"/>
    <rect x="33" y="13" width="294" height="496" rx="34" fill="#f2dcc7"/>
    <rect x="46" y="26" width="268" height="470" rx="28" fill="url(#screen)"/>
    <path d="M80 92C132 49 205 56 262 133C209 122 154 145 118 190C95 165 82 133 80 92Z" fill="#fff5e6" fill-opacity=".56"/>
    <path d="M86 308C145 264 220 258 282 333C235 331 186 352 149 395C114 377 95 348 86 308Z" fill="#ffd9bd" fill-opacity=".24"/>
    <circle cx="252" cy="96" r="48" fill="#d4a57d" stroke="#f2ddcb" stroke-opacity=".56" stroke-width="3"/>
    <circle cx="233" cy="79" r="14" fill="#101214"/>
    <circle cx="271" cy="79" r="14" fill="#101214"/>
    <circle cx="233" cy="113" r="14" fill="#101214"/>
    <circle cx="271" cy="113" r="14" fill="#101214"/>
    <circle cx="252" cy="96" r="8" fill="#2d343d"/>
    <path d="M73 26H119V496H73C59 496 48 485 48 471V51C48 37 59 26 73 26Z" fill="#c9895f"/>
    <path d="M73 26H94V496H73C59 496 48 485 48 471V51C48 37 59 26 73 26Z" fill="#a56f4c"/>
    <circle cx="180" cy="27" r="5" fill="#f1e6dc"/>
    <rect x="18" y="118" width="4" height="72" rx="2" fill="#efd9c4"/>
    <rect x="340" y="165" width="4" height="94" rx="2" fill="#efd9c4"/>
  </g>
</svg>
