<svg xmlns="http://www.w3.org/2000/svg" width="900" height="700" viewBox="0 0 900 700" fill="none">
  <defs>
    <linearGradient id="bg" x1="108" y1="86" x2="773" y2="612" gradientUnits="userSpaceOnUse">
      <stop stop-color="#161617"/>
      <stop offset="1" stop-color="#09090b"/>
    </linearGradient>
    <radialGradient id="glow" cx="0" cy="0" r="1" gradientUnits="userSpaceOnUse" gradientTransform="translate(646 165) rotate(136.69) scale(319.906 446.169)">
      <stop stop-color="#ffd86d"/>
      <stop offset="1" stop-color="#ffd86d" stop-opacity="0"/>
    </radialGradient>
    <linearGradient id="body" x1="274" y1="96" x2="624" y2="602" gradientUnits="userSpaceOnUse">
      <stop stop-color="#2e2d2c"/>
      <stop offset="0.54" stop-color="#161616"/>
      <stop offset="1" stop-color="#403f3b"/>
    </linearGradient>
    <linearGradient id="wallpaper" x1="305" y1="115" x2="610" y2="594" gradientUnits="userSpaceOnUse">
      <stop stop-color="#fff6dc"/>
      <stop offset="0.3" stop-color="#f5c242"/>
      <stop offset="0.68" stop-color="#5f3913"/>
      <stop offset="1" stop-color="#120a05"/>
    </linearGradient>
  </defs>
  <rect width="900" height="700" rx="44" fill="url(#bg)"/>
  <circle cx="646" cy="165" r="242" fill="url(#glow)" opacity=".72"/>
  <circle cx="221" cy="543" r="176" fill="#4d3514" opacity=".36"/>
  <rect x="110" y="84" width="680" height="532" rx="40" fill="#ffffff" fill-opacity=".03" stroke="#ffffff" stroke-opacity=".08"/>
  <ellipse cx="451" cy="592" rx="178" ry="29" fill="#000000" fill-opacity=".38"/>
  <g transform="translate(244 88)">
    <rect x="20" y="0" width="320" height="524" rx="42" fill="url(#body)"/>
    <rect x="33" y="13" width="294" height="498" rx="35" fill="#050506"/>
    <rect x="46" y="26" width="268" height="472" rx="30" fill="url(#wallpaper)"/>
    <path d="M82 93C134 50 204 54 262 132C212 121 158 146 119 191C97 166 85 134 82 93Z" fill="#fff2c7" fill-opacity=".64"/>
    <path d="M88 310C145 268 219 258 280 333C236 331 188 350 151 395C118 376 98 347 88 310Z" fill="#ffdea3" fill-opacity=".22"/>
    <circle cx="247" cy="113" r="63" fill="#181818" stroke="#9c8450" stroke-opacity=".5" stroke-width="4"/>
    <circle cx="224" cy="92" r="17" fill="#090909"/>
    <circle cx="270" cy="92" r="17" fill="#090909"/>
    <circle cx="224" cy="136" r="17" fill="#090909"/>
    <circle cx="270" cy="136" r="17" fill="#090909"/>
    <circle cx="247" cy="113" r="11" fill="#1f2125"/>
    <circle cx="224" cy="92" r="10" fill="#2b3037"/>
    <circle cx="270" cy="92" r="10" fill="#2b3037"/>
    <circle cx="224" cy="136" r="10" fill="#2b3037"/>
    <circle cx="270" cy="136" r="10" fill="#2b3037"/>
    <circle cx="181" cy="27" r="5" fill="#1f2024"/>
    <rect x="18" y="118" width="4" height="72" rx="2" fill="#4f4c46"/>
    <rect x="340" y="165" width="4" height="94" rx="2" fill="#4f4c46"/>
  </g>
</svg>
